<?xml version="1.0" encoding="UTF-8"?>
<svg xmlns="http://www.w3.org/2000/svg" xmlns:xlink="http://www.w3.org/1999/xlink" width="15px" height="15px" viewBox="0 0 15 15" version="1.1">
<g id="surface1">
<path style="fill:none;stroke-width:2;stroke-linecap:round;stroke-linejoin:round;stroke:rgb(0%,0%,0%);stroke-opacity:1;stroke-miterlimit:4;" d="M 4 19 L 4 6.2 C 4 5.08125 4 4.51875 4.21875 4.09375 C 4.4125 3.71875 4.71875 3.4125 5.09375 3.21875 C 5.51875 3 6.08125 3 7.2 3 L 16.8 3 C 17.91875 3 18.48125 3 18.90625 3.21875 C 19.28125 3.4125 19.5875 3.71875 19.78125 4.09375 C 20 4.51875 20 5.08125 20 6.2 L 20 17 L 6 17 C 4.89375 17 4 17.89375 4 19 Z M 4 19 C 4 20.10625 4.89375 21 6 21 L 20 21 M 9 7 L 15 7 M 9 11 L 15 11 M 19 17 L 19 21 " transform="matrix(0.625,0,0,0.625,0,0)"/>
</g>
</svg>
