<?xml version="1.0" encoding="UTF-8"?>
<svg xmlns="http://www.w3.org/2000/svg" xmlns:xlink="http://www.w3.org/1999/xlink" width="15px" height="15px" viewBox="0 0 15 15" version="1.1">
<g id="surface1">
<path style=" stroke:none;fill-rule:nonzero;fill:rgb(0%,0%,0%);fill-opacity:1;" d="M 13.660156 8.398438 C 13.917969 7.964844 14.0625 7.5 14.0625 6.9375 C 14.0625 5.648438 12.972656 4.433594 11.546875 4.433594 L 10.480469 4.433594 C 10.625 4.054688 10.738281 3.609375 10.738281 3.066406 C 10.738281 0.9375 9.632812 0 7.949219 0 C 6.144531 0 6.246094 2.78125 5.84375 3.179688 C 5.179688 3.847656 4.390625 5.128906 3.832031 5.625 L 0.9375 5.625 C 0.417969 5.625 0 6.042969 0 6.5625 L 0 13.59375 C 0 14.113281 0.417969 14.53125 0.9375 14.53125 L 2.8125 14.53125 C 3.25 14.53125 3.617188 14.234375 3.71875 13.828125 C 5.023438 13.859375 5.917969 15 8.929688 15 C 9.140625 15 9.375 15 9.578125 15 C 11.839844 15 12.859375 13.84375 12.890625 12.207031 C 13.277344 11.667969 13.484375 10.945312 13.398438 10.246094 C 13.6875 9.703125 13.796875 9.0625 13.660156 8.398438 Z M 11.851562 9.976562 C 12.21875 10.59375 11.886719 11.421875 11.441406 11.664062 C 11.667969 13.09375 10.925781 13.59375 9.886719 13.59375 L 8.777344 13.59375 C 6.679688 13.59375 5.320312 12.484375 3.75 12.484375 L 3.75 7.03125 L 4.070312 7.03125 C 4.902344 7.03125 6.0625 4.953125 6.839844 4.175781 C 7.671875 3.34375 7.394531 1.960938 7.949219 1.40625 C 9.332031 1.40625 9.332031 2.371094 9.332031 3.066406 C 9.332031 4.214844 8.5 4.730469 8.5 5.839844 L 11.546875 5.839844 C 12.167969 5.839844 12.652344 6.390625 12.65625 6.945312 C 12.660156 7.5 12.28125 8.054688 12.003906 8.054688 C 12.398438 8.480469 12.484375 9.378906 11.851562 9.976562 Z M 2.578125 12.65625 C 2.578125 13.042969 2.261719 13.359375 1.875 13.359375 C 1.488281 13.359375 1.171875 13.042969 1.171875 12.65625 C 1.171875 12.269531 1.488281 11.953125 1.875 11.953125 C 2.261719 11.953125 2.578125 12.269531 2.578125 12.65625 Z M 2.578125 12.65625 "/>
</g>
</svg>
