<?xml version="1.0" encoding="UTF-8"?>
<svg xmlns="http://www.w3.org/2000/svg" xmlns:xlink="http://www.w3.org/1999/xlink" width="15px" height="15px" viewBox="0 0 15 15" version="1.1">
<g id="surface1">
<path style=" stroke:none;fill-rule:nonzero;fill:rgb(0%,0%,0%);fill-opacity:1;" d="M 13.660156 6.601562 C 13.796875 5.9375 13.6875 5.296875 13.398438 4.753906 C 13.484375 4.054688 13.277344 3.332031 12.890625 2.792969 C 12.859375 1.15625 11.839844 0 9.578125 0 C 9.375 0 9.140625 0 8.929688 0 C 5.894531 0 4.949219 1.171875 3.75 1.171875 L 3.433594 1.171875 C 3.265625 1.027344 3.050781 0.9375 2.8125 0.9375 L 0.9375 0.9375 C 0.417969 0.9375 0 1.355469 0 1.875 L 0 8.90625 C 0 9.425781 0.417969 9.84375 0.9375 9.84375 L 2.8125 9.84375 C 3.160156 9.84375 3.460938 9.65625 3.625 9.375 L 3.832031 9.375 C 4.390625 9.871094 5.179688 11.152344 5.84375 11.820312 C 6.246094 12.21875 6.144531 15 7.949219 15 C 9.632812 15 10.738281 14.0625 10.738281 11.933594 C 10.738281 11.390625 10.625 10.945312 10.480469 10.566406 L 11.546875 10.566406 C 12.972656 10.566406 14.0625 9.351562 14.0625 8.0625 C 14.0625 7.5 13.917969 7.035156 13.660156 6.601562 Z M 1.875 8.671875 C 1.488281 8.671875 1.171875 8.355469 1.171875 7.96875 C 1.171875 7.582031 1.488281 7.265625 1.875 7.265625 C 2.261719 7.265625 2.578125 7.582031 2.578125 7.96875 C 2.578125 8.355469 2.261719 8.671875 1.875 8.671875 Z M 11.546875 9.160156 L 8.5 9.160156 C 8.5 10.269531 9.332031 10.785156 9.332031 11.933594 C 9.332031 12.628906 9.332031 13.59375 7.949219 13.59375 C 7.394531 13.039062 7.671875 11.65625 6.839844 10.824219 C 6.0625 10.046875 4.902344 7.96875 4.070312 7.96875 L 3.75 7.96875 L 3.75 2.515625 C 5.320312 2.515625 6.679688 1.40625 8.777344 1.40625 L 9.886719 1.40625 C 10.925781 1.40625 11.667969 1.90625 11.441406 3.335938 C 11.886719 3.578125 12.21875 4.40625 11.851562 5.023438 C 12.484375 5.621094 12.398438 6.519531 12.003906 6.945312 C 12.28125 6.945312 12.660156 7.5 12.65625 8.054688 C 12.652344 8.609375 12.167969 9.160156 11.546875 9.160156 Z M 11.546875 9.160156 "/>
</g>
</svg>
